<svg id="Capa_1" data-name="Capa 1" xmlns="http://www.w3.org/2000/svg" width="8192.16" height="2572.74" viewBox="0 0 8192.16 2572.74"><defs><style>.cls-1{fill:#0054d1;}</style></defs><title>RayoLightningB</title><path class="cls-1" d="M1591.4,641c-17,4.4-30.1,13.6-53.9,37.5s-35.7,37.3-169,190.5c-42.8,49.2-86.9,99.8-98,112.5s-70.9,81.3-133,152.5c-108.2,124.1-177.9,203.9-274.5,314.5-167.2,191.4-206.6,238-215.9,255.5-1.7,3.2-4.3,10.6-5.8,16.6-2.6,10-2.8,12.3-2.6,28,.1,14.6.5,18.6,2.7,27.8,3.4,14,7.6,24,14.7,34.5,15.6,23.3,30.9,35.6,52.8,42.5,20.9,6.6,34.8,7.3,172.6,8.6,179.3,1.6,277.9,2.9,280.3,3.6,1.2.3,2.2,1.3,2.2,2.1,0,2.1-12.7,35.1-43.7,113.2-15.2,38.3-33.5,84.7-40.8,103.1s-24.7,62.5-38.8,98-36.2,91.5-49.2,124.5c-54,136.7-62.2,157.5-75.2,190.5-21.3,53.9-44.9,113.1-50.7,126.9-2.9,6.9-8.8,22.5-13.1,34.6s-10.9,29-14.7,37.5c-16.5,36.6-20.2,50.2-22.7,83.4-1.6,20.7.3,30.6,9.4,48.6,13.3,26.4,29.3,38.8,58.5,45.2,9.4,2,13.1,2.3,36,2.2,23.4,0,26.2-.2,33.4-2.2,33.5-9.5,53.4-29.1,166.2-163.2,46.8-55.6,77.5-92,109.8-130,43.7-51.4,127.6-150.5,167.1-197.4,43.6-51.7,87.9-104,131.5-155.2,65.4-76.7,243-286.5,277.6-327.9,39.5-47.3,66.3-83.2,73.2-97.8,15.9-33.8,14.3-74-4-103.4-10-16.1-28.8-32.3-45.8-39.4-16.8-7.1-34-7.8-231.5-8.9-94.7-.6-167.7-1.4-174.3-2-12.8-1.2-18.2-2.9-18.2-5.8,0-5.7,7.3-27,34.3-99.7,10.2-27.5,26.7-71.8,36.5-98.5s30.2-81.1,45-121,35.2-95,45.2-122.5,25.1-68.5,33.5-91c77.6-207.5,110.3-299.2,120.8-338.4,3.9-14.5,4.2-16.5,4.1-28.1,0-9.7-.5-14.4-2.3-20.9-4.7-17.7-12.6-33.7-22.3-45.2-14.1-16.8-42.6-31.5-70.4-36.4C1616.5,638.4,1600.3,638.6,1591.4,641Z" transform="translate(-638.64 -639.05)"/><path class="cls-1" d="M4346.5,911.7c-234.2,9.1-437.8,106.2-580.3,276.6-154.5,184.7-221.1,445.5-182.1,713.2,21.5,147.7,78.6,285.4,165.1,397.6,34.2,44.4,80,91.4,123.3,126.5,119,96.5,265.6,155,425.5,169.8,56.8,5.3,123.7,4.6,177-1.9,118.1-14.4,227.3-58,319.8-127.5,53.9-40.5,101.3-87.9,147.3-146.9l10.4-13.5.3,116.7.2,116.7h299V971H4953l-.2,115.9-.3,115.8-13.7-17.1c-21.8-27.3-35.4-42.3-63.7-70.7-32.5-32.5-55.7-52.5-87.1-75.5C4663,948.4,4513.6,905.1,4346.5,911.7ZM4471,1189.4c46,5.2,83.4,13.3,122,26.4A506.82,506.82,0,0,1,4835,1391c59.8,79.2,97.7,176.6,109.9,282.5,3.4,28.9,4.4,47.8,4.4,80.5s-1,51.7-4.3,80.1c-15.7,135.2-71,253.6-159.4,341.3-82.6,81.8-191.8,132.6-311.6,145-92,9.6-187.2-3-267.5-35.2-118.9-47.7-214.1-136.7-271.5-253.7-33-67.3-51.8-135.4-59.7-217-2.2-22.6-2.5-95.6-.5-116,2.5-25.5,5.4-47.3,8.7-65.6,36.8-201.7,166.1-356.3,349.5-417.9,41.4-13.9,88.9-23.2,137.1-27C4388.5,1186.6,4454.1,1187.5,4471,1189.4Z" transform="translate(-638.64 -639.05)"/><path class="cls-1" d="M7956,911.7c-182.8,6.7-349.7,62.8-483.3,162.6A768.88,768.88,0,0,0,7318,1228.5c-79.9,106.4-132.5,233.9-154.5,375-13.2,84.5-14.8,179.7-4.5,268,25.8,220.7,126.8,412,286.5,543,146.8,120.4,336.4,184.5,546,184.5,205.9,0,392.8-62.2,539-179.5,88.4-70.9,159.6-159.8,210.5-263,50.4-102.1,77.9-206.4,88.1-334,1.7-21.3,2.3-91.4,1-116.5-7.8-152.4-47.7-289.3-118.9-408-83.4-139.2-204.8-246.3-354.2-312.5C8236.8,932.2,8097.1,906.5,7956,911.7Zm94.5,277.7c93.7,10.2,171.4,37.6,244,86.1,74.5,49.9,134.7,119.2,175.5,202,34.4,70,53.3,141.8,60.1,228.5,1.6,19.9,1.6,74.8,0,95.5-10,133.8-53.4,246.2-131,339.5-20.3,24.5-54.9,57.2-82.7,78.2-41.8,31.6-95.6,59.8-145.9,76.3-111.9,36.9-242.4,37.4-354.3,1.5a507.2,507.2,0,0,1-224.3-146c-20-22.6-46.6-59.6-61.7-86-42-73.7-66.6-154.5-75.9-249.5-2.2-22.9-2.5-95.1-.5-117.5,7.5-82.8,25.6-151.3,57.6-217.5,34.9-72.2,82-131.8,142.1-180,82.1-65.8,181.3-103.7,294-112.4C7966.2,1186.6,8032.7,1187.5,8050.5,1189.4Z" transform="translate(-638.64 -639.05)"/><path class="cls-1" d="M3199.2,942.1c-147.7,9.4-291.6,87.1-370.6,200.3l-7.6,10.8V971l-146.7.2-146.8.3-.3,783.7L2527,2539h300V2106.2c0-434.2.1-449.8,3.5-485.2,18.4-189.6,108.4-331.6,242.9-383.5,34-13.1,67.4-19.3,108.3-20.2,52.9-1.2,111.4,6.9,168.3,23.2,23,6.6,37.6,11.9,66.4,24,12.3,5.2,22.7,9.5,23,9.5s.6-63.9.6-142V990l-15.7-7.9c-8.7-4.3-21.9-10.1-29.3-12.9C3339.3,948.3,3264.3,937.9,3199.2,942.1Z" transform="translate(-638.64 -639.05)"/><path class="cls-1" d="M5459.3,972.7c.3,1,154.8,347.5,343.5,770.1l343,768.3-27.4,68.5c-41.7,104.2-50,123.6-69.9,163.9-29.1,58.7-54.8,96.9-86.4,128.5-59.2,59.1-130.1,78.5-225.6,61.9-42.9-7.5-86-20-136.2-39.5-13.7-5.3-25.8-10-27-10.5l-2.3-.9v272.6l15.8,6.6c63.4,26.6,139.1,43.8,215.2,48.9,21.9,1.4,68.3.6,87.9-1.6,101-11.3,185.4-51.6,260.4-124.4,60.1-58.4,112-134.5,166.2-243.6,31.8-64.1,57.3-122.5,104.5-239.5,16.2-40.1,634.3-1624.1,635.7-1629.3.5-1.6-7.4-1.7-160.2-1.5l-160.7.3-25.5,68c-249,665.1-416.6,1112.1-417.2,1112.7-.3.4-113.1-256.1-250.6-570s-253.9-579.8-258.8-591l-9-20.2H5616.8C5466.8,971,5458.8,971.1,5459.3,972.7Z" transform="translate(-638.64 -639.05)"/></svg>