<?xml version="1.0" standalone="no"?>
<!DOCTYPE svg PUBLIC "-//W3C//DTD SVG 20010904//EN"
 "http://www.w3.org/TR/2001/REC-SVG-20010904/DTD/svg10.dtd">
<svg version="1.0" xmlns="http://www.w3.org/2000/svg"
 width="9472.000000pt" height="3851.000000pt" viewBox="0 0 9472.000000 3851.000000"
 preserveAspectRatio="xMidYMid meet">

<g transform="translate(0.000000,3851.000000) scale(0.100000,-0.100000)"
fill="#000000" stroke="none">
<path d="M15914 32100 c-170 -44 -301 -136 -539 -375 -238 -238 -357 -373
-1690 -1905 -428 -492 -869 -998 -980 -1125 -111 -126 -709 -813 -1330 -1525
-1082 -1241 -1779 -2039 -2745 -3145 -1672 -1914 -2066 -2380 -2159 -2555 -17
-32 -43 -106 -58 -166 -26 -100 -28 -123 -26 -280 1 -146 5 -186 27 -278 34
-140 76 -240 147 -345 156 -233 309 -356 528 -425 209 -66 348 -73 1726 -86
1793 -16 2779 -29 2803 -36 12 -3 22 -13 22 -21 0 -21 -127 -351 -437 -1132
-152 -383 -335 -847 -408 -1031 -73 -184 -247 -625 -388 -980 -140 -355 -362
-915 -492 -1245 -540 -1367 -622 -1575 -752 -1905 -213 -539 -449 -1131 -507
-1269 -29 -69 -88 -225 -131 -346 -43 -121 -109 -290 -147 -375 -165 -366
-202 -502 -227 -834 -16 -207 3 -306 94 -486 133 -264 293 -388 585 -452 94
-20 131 -23 360 -22 234 0 262 2 334 22 335 95 534 291 1662 1632 468 556 775
920 1098 1300 437 514 1276 1505 1671 1974 436 517 879 1040 1315 1552 654
767 2430 2865 2776 3279 395 473 663 832 732 978 159 338 143 740 -40 1034
-100 161 -288 323 -458 394 -168 71 -340 78 -2315 89 -947 6 -1677 14 -1743
20 -128 12 -182 29 -182 58 0 57 73 270 343 997 102 275 267 718 365 985 99
267 302 811 450 1210 149 399 352 950 452 1225 100 275 251 685 335 910 776
2075 1103 2992 1208 3384 39 145 42 165 41 281 0 97 -5 144 -23 209 -47 177
-126 337 -223 452 -141 168 -426 315 -704 364 -119 21 -281 19 -370 -5z"/>
<path d="M43465 29393 c-2342 -91 -4378 -1062 -5803 -2766 -1545 -1847 -2211
-4455 -1821 -7132 215 -1477 786 -2854 1651 -3976 342 -444 800 -914 1233
-1265 1190 -965 2656 -1550 4255 -1698 568 -53 1237 -46 1770 19 1181 144
2273 580 3198 1275 539 405 1013 879 1473 1469 l104 135 3 -1167 2 -1167 1495
0 1495 0 0 7840 0 7840 -1495 0 -1495 0 -2 -1159 -3 -1158 -137 171 c-218 273
-354 423 -637 707 -325 325 -557 525 -871 755 -1250 910 -2744 1343 -4415
1277z m1245 -2777 c460 -52 834 -133 1220 -264 965 -328 1802 -934 2420 -1752
598 -792 977 -1766 1099 -2825 34 -289 44 -478 44 -805 0 -326 -10 -517 -43
-801 -157 -1352 -710 -2536 -1594 -3413 -826 -818 -1918 -1326 -3116 -1450
-920 -96 -1872 30 -2675 352 -1189 477 -2141 1367 -2715 2537 -330 673 -518
1354 -597 2170 -22 226 -25 956 -5 1160 25 255 54 473 87 656 368 2017 1661
3563 3495 4179 414 139 889 232 1371 270 184 14 840 5 1009 -14z"/>
<path d="M79560 29393 c-1828 -67 -3497 -628 -4833 -1626 -586 -437 -1108
-958 -1547 -1542 -799 -1064 -1325 -2339 -1545 -3750 -132 -845 -148 -1797
-45 -2680 258 -2207 1268 -4120 2865 -5430 1468 -1204 3364 -1845 5460 -1845
2059 0 3928 622 5390 1795 884 709 1596 1598 2105 2630 504 1021 779 2064 881
3340 17 213 23 914 10 1165 -78 1524 -477 2893 -1189 4080 -834 1392 -2048
2463 -3542 3125 -1202 533 -2599 790 -4010 738z m945 -2777 c937 -102 1714
-376 2440 -861 745 -499 1347 -1192 1755 -2020 344 -700 533 -1418 601 -2285
16 -199 16 -748 0 -955 -100 -1338 -534 -2462 -1310 -3395 -203 -245 -549
-572 -827 -782 -418 -316 -956 -598 -1459 -763 -1119 -369 -2424 -374 -3543
-15 -869 280 -1641 782 -2243 1460 -200 226 -466 596 -617 860 -420 737 -666
1545 -759 2495 -22 229 -25 951 -5 1175 75 828 256 1513 576 2175 349 722 820
1318 1421 1800 821 658 1813 1037 2940 1124 187 15 852 6 1030 -13z"/>
<path d="M31992 29089 c-1477 -94 -2916 -871 -3706 -2003 l-76 -108 0 911 0
911 -1467 -2 -1468 -3 -3 -7837 -2 -7838 1500 0 1500 0 0 4328 c0 4342 1 4498
35 4852 184 1896 1084 3316 2429 3835 340 131 674 193 1083 202 529 12 1114
-69 1683 -232 230 -66 376 -119 664 -240 123 -52 227 -95 230 -95 3 0 6 639 6
1420 l0 1420 -157 79 c-87 43 -219 101 -293 129 -557 209 -1307 313 -1958 271z"/>
<path d="M54593 28783 c3 -10 1548 -3475 3435 -7701 l3430 -7683 -274 -685
c-417 -1042 -500 -1236 -699 -1639 -291 -587 -548 -969 -864 -1285 -592 -591
-1301 -785 -2256 -619 -429 75 -860 200 -1362 395 -137 53 -258 100 -270 105
l-23 9 0 -1363 0 -1363 158 -66 c634 -266 1391 -438 2152 -489 219 -14 683 -6
879 16 1010 113 1854 516 2604 1244 601 584 1120 1345 1662 2436 318 641 573
1225 1045 2395 162 401 6343 16241 6357 16293 5 16 -74 17 -1602 15 l-1607 -3
-255 -680 c-2490 -6651 -4166 -11121 -4172 -11127 -3 -4 -1131 2561 -2506
5700 -1374 3139 -2539 5798 -2588 5910 l-90 202 -1579 0 c-1500 0 -1580 -1
-1575 -17z"/>
</g>
</svg>
