<svg id="Capa_1" data-name="Capa 1" xmlns="http://www.w3.org/2000/svg" width="1603.47" height="2868.6" viewBox="0 0 1603.47 2868.6"><defs><style>.cls-1{fill:#0054d1;}</style></defs><title>RayoIsoBlue</title><path class="cls-1" d="M2346.49,493.7c-21.81,5.64-38.61,17.44-69.14,48.1s-45.79,47.84-216.78,244.35c-54.9,63.11-111.46,128-125.7,144.31s-90.95,104.28-170.6,195.61c-138.79,159.19-228.2,261.55-352.11,403.41-214.47,245.51-265,305.29-276.93,327.74-2.18,4.1-5.52,13.59-7.44,21.29-3.34,12.83-3.59,15.78-3.34,35.91.13,18.73.64,23.86,3.47,35.66,4.36,18,9.74,30.79,18.85,44.26,20,29.88,39.64,45.66,67.73,54.51,26.81,8.47,44.64,9.37,221.39,11,230,2.06,356.47,3.72,359.55,4.62,1.54.39,2.82,1.67,2.82,2.69,0,2.7-16.29,45-56.06,145.21-19.49,49.13-43,108.64-52.33,132.24s-31.68,80.17-49.77,125.71-46.43,117.37-63.11,159.7c-69.26,175.34-79.78,202-96.46,244.35-27.32,69.14-57.59,145.08-65,162.78-3.72,8.85-11.29,28.86-16.81,44.38s-14,37.2-18.85,48.1c-21.17,47-25.91,64.39-29.12,107-2,26.55.39,39.25,12.06,62.34,17.06,33.86,37.58,49.77,75,58,12,2.56,16.8,2.95,46.17,2.82,30,0,33.61-.26,42.85-2.82,43-12.19,68.49-37.33,213.18-209.34,60-71.32,99.41-118,140.84-166.75,56.06-65.93,163.68-193,214.35-253.21,55.92-66.31,112.75-133.4,168.67-199.07,83.89-98.39,311.7-367.5,356.08-420.6,50.67-60.68,85.05-106.73,93.9-125.45,20.39-43.36,18.34-94.92-5.13-132.64-12.83-20.65-36.95-41.43-58.75-50.53-21.55-9.11-43.62-10-296.95-11.42-121.47-.77-215.11-1.8-223.58-2.57-16.41-1.54-23.34-3.72-23.34-7.44,0-7.31,9.36-34.63,44-127.88,13.08-35.28,34.24-92.1,46.81-126.35s38.74-104,57.73-155.21,45.15-121.85,58-157.13,32.2-87.86,43-116.72c99.53-266.17,141.48-383.79,155-434.07,5-18.6,5.38-21.17,5.26-36.05,0-12.44-.65-18.47-2.95-26.81-6-22.7-16.17-43.22-28.61-58-18.09-21.55-54.64-40.41-90.3-46.69C2378.68,490.36,2357.9,490.62,2346.49,493.7Z" transform="translate(-1124.38 -491.2)"/></svg>